<mxfile host="app.diagrams.net" modified="2024-06-04T22:33:31.545Z" agent="Mozilla/5.0 (Windows NT 10.0; Win64; x64) AppleWebKit/537.36 (KHTML, like Gecko) Chrome/123.0.0.0 Safari/537.36 OPR/109.0.0.0" etag="_yH0dej8XA5H4rUeYvF7" version="24.4.10" type="github">
  <diagram name="PÃ¡gina-1" id="cL6yZ16yJyZZ7v5ep6dx">
    <mxGraphModel dx="1393" dy="758" grid="1" gridSize="10" guides="1" tooltips="1" connect="1" arrows="1" fold="1" page="1" pageScale="1" pageWidth="827" pageHeight="1169" math="0" shadow="0">
      <root>
        <mxCell id="0" />
        <mxCell id="1" parent="0" />
      </root>
    </mxGraphModel>
  </diagram>
</mxfile>
